<svg viewBox="0 0 24 24" xmlns="http://www.w3.org/2000/svg" fill="none">
  <path d="M4 10 Q4 7 7 7 L10 7 Q11 7 12 8 Q13 7 14 7 L17 7 Q20 7 20 10 L20 12 Q20 14 18 15 L14 15 Q13 15 12 14 Q11 15 10 15 L6 15 Q4 14 4 12 Z" fill="#8aaa8e" opacity="0.9"/>
  <path d="M9 7 Q9 5.5 10.5 5 Q12 4.5 12 7" stroke="#5c7a5e" stroke-width="1.5" fill="none" stroke-linecap="round"/>
  <path d="M15 7 Q15 5.5 13.5 5 Q12 4.5 12 7" stroke="#5c7a5e" stroke-width="1.5" fill="none" stroke-linecap="round"/>
  <path d="M4 11 L3 12 Q2 13 3 14 Q4 15 5 14" stroke="#5c7a5e" stroke-width="1.5" fill="none" stroke-linecap="round"/>
  <path d="M20 11 L21 12 Q22 13 21 14 Q20 15 19 14" stroke="#5c7a5e" stroke-width="1.5" fill="none" stroke-linecap="round"/>
  <path d="M6 15 L6 18 Q6 19 7 19 L17 19 Q18 19 18 18 L18 15" stroke="#5c7a5e" stroke-width="1.5" fill="#8aaa8e" opacity="0.4"/>
</svg>

